<svg width="32" height="33" viewBox="0 0 32 33" fill="none" xmlns="http://www.w3.org/2000/svg">
<path d="M29 6.5V11.5C29 11.7652 28.8946 12.0196 28.7071 12.2071C28.5196 12.3946 28.2652 12.5 28 12.5C27.7348 12.5 27.4804 12.3946 27.2929 12.2071C27.1054 12.0196 27 11.7652 27 11.5V7.5H23C22.7348 7.5 22.4804 7.39464 22.2929 7.20711C22.1054 7.01957 22 6.76522 22 6.5C22 6.23478 22.1054 5.98043 22.2929 5.79289C22.4804 5.60536 22.7348 5.5 23 5.5H28C28.2652 5.5 28.5196 5.60536 28.7071 5.79289C28.8946 5.98043 29 6.23478 29 6.5ZM9 25.5H5V21.5C5 21.2348 4.89464 20.9804 4.70711 20.7929C4.51957 20.6054 4.26522 20.5 4 20.5C3.73478 20.5 3.48043 20.6054 3.29289 20.7929C3.10536 20.9804 3 21.2348 3 21.5V26.5C3 26.7652 3.10536 27.0196 3.29289 27.2071C3.48043 27.3946 3.73478 27.5 4 27.5H9C9.26522 27.5 9.51957 27.3946 9.70711 27.2071C9.89464 27.0196 10 26.7652 10 26.5C10 26.2348 9.89464 25.9804 9.70711 25.7929C9.51957 25.6054 9.26522 25.5 9 25.5ZM28 20.5C27.7348 20.5 27.4804 20.6054 27.2929 20.7929C27.1054 20.9804 27 21.2348 27 21.5V25.5H23C22.7348 25.5 22.4804 25.6054 22.2929 25.7929C22.1054 25.9804 22 26.2348 22 26.5C22 26.7652 22.1054 27.0196 22.2929 27.2071C22.4804 27.3946 22.7348 27.5 23 27.5H28C28.2652 27.5 28.5196 27.3946 28.7071 27.2071C28.8946 27.0196 29 26.7652 29 26.5V21.5C29 21.2348 28.8946 20.9804 28.7071 20.7929C28.5196 20.6054 28.2652 20.5 28 20.5ZM4 12.5C4.26522 12.5 4.51957 12.3946 4.70711 12.2071C4.89464 12.0196 5 11.7652 5 11.5V7.5H9C9.26522 7.5 9.51957 7.39464 9.70711 7.20711C9.89464 7.01957 10 6.76522 10 6.5C10 6.23478 9.89464 5.98043 9.70711 5.79289C9.51957 5.60536 9.26522 5.5 9 5.5H4C3.73478 5.5 3.48043 5.60536 3.29289 5.79289C3.10536 5.98043 3 6.23478 3 6.5V11.5C3 11.7652 3.10536 12.0196 3.29289 12.2071C3.48043 12.3946 3.73478 12.5 4 12.5ZM10 10.5C9.73478 10.5 9.48043 10.6054 9.29289 10.7929C9.10536 10.9804 9 11.2348 9 11.5V21.5C9 21.7652 9.10536 22.0196 9.29289 22.2071C9.48043 22.3946 9.73478 22.5 10 22.5C10.2652 22.5 10.5196 22.3946 10.7071 22.2071C10.8946 22.0196 11 21.7652 11 21.5V11.5C11 11.2348 10.8946 10.9804 10.7071 10.7929C10.5196 10.6054 10.2652 10.5 10 10.5ZM23 21.5V11.5C23 11.2348 22.8946 10.9804 22.7071 10.7929C22.5196 10.6054 22.2652 10.5 22 10.5C21.7348 10.5 21.4804 10.6054 21.2929 10.7929C21.1054 10.9804 21 11.2348 21 11.5V21.5C21 21.7652 21.1054 22.0196 21.2929 22.2071C21.4804 22.3946 21.7348 22.5 22 22.5C22.2652 22.5 22.5196 22.3946 22.7071 22.2071C22.8946 22.0196 23 21.7652 23 21.5ZM18 10.5C17.7348 10.5 17.4804 10.6054 17.2929 10.7929C17.1054 10.9804 17 11.2348 17 11.5V21.5C17 21.7652 17.1054 22.0196 17.2929 22.2071C17.4804 22.3946 17.7348 22.5 18 22.5C18.2652 22.5 18.5196 22.3946 18.7071 22.2071C18.8946 22.0196 19 21.7652 19 21.5V11.5C19 11.2348 18.8946 10.9804 18.7071 10.7929C18.5196 10.6054 18.2652 10.5 18 10.5ZM14 10.5C13.7348 10.5 13.4804 10.6054 13.2929 10.7929C13.1054 10.9804 13 11.2348 13 11.5V21.5C13 21.7652 13.1054 22.0196 13.2929 22.2071C13.4804 22.3946 13.7348 22.5 14 22.5C14.2652 22.5 14.5196 22.3946 14.7071 22.2071C14.8946 22.0196 15 21.7652 15 21.5V11.5C15 11.2348 14.8946 10.9804 14.7071 10.7929C14.5196 10.6054 14.2652 10.5 14 10.5Z" fill="#FAFAFA"/>
</svg>
