<svg width="24" height="22" viewBox="0 0 24 22" fill="none" xmlns="http://www.w3.org/2000/svg">
<path d="M9.93091 20.1033C9.93091 20.4307 9.83384 20.7507 9.65197 21.0229C9.47009 21.2951 9.21159 21.5072 8.90916 21.6325C8.60672 21.7578 8.27392 21.7905 7.95285 21.7267C7.63178 21.6628 7.33687 21.5052 7.10539 21.2737C6.87391 21.0422 6.71627 20.7473 6.65241 20.4262C6.58854 20.1052 6.62132 19.7724 6.7466 19.4699C6.87187 19.1675 7.08402 18.909 7.3562 18.7271C7.62839 18.5453 7.9484 18.4482 8.27576 18.4482C8.71473 18.4482 9.13572 18.6226 9.44613 18.933C9.75653 19.2434 9.93091 19.6644 9.93091 20.1033ZM19.0342 18.4482C18.7069 18.4482 18.3869 18.5453 18.1147 18.7271C17.8425 18.909 17.6304 19.1675 17.5051 19.4699C17.3798 19.7724 17.347 20.1052 17.4109 20.4262C17.4748 20.7473 17.6324 21.0422 17.8639 21.2737C18.0954 21.5052 18.3903 21.6628 18.7113 21.7267C19.0324 21.7905 19.3652 21.7578 19.6676 21.6325C19.9701 21.5072 20.2286 21.2951 20.4104 21.0229C20.5923 20.7507 20.6894 20.4307 20.6894 20.1033C20.6894 19.6644 20.515 19.2434 20.2046 18.933C19.8942 18.6226 19.4732 18.4482 19.0342 18.4482ZM23.9635 5.45007L21.0121 15.0406C20.8576 15.549 20.5432 15.9941 20.1158 16.3097C19.6883 16.6254 19.1705 16.7949 18.6391 16.793H8.69679C8.1578 16.791 7.63397 16.6144 7.20374 16.2898C6.77352 15.9651 6.46004 15.5098 6.31026 14.992L2.56755 1.89667H0.827576C0.608089 1.89667 0.397592 1.80948 0.242391 1.65428C0.0871908 1.49908 0 1.28858 0 1.06909C0 0.849605 0.0871908 0.639108 0.242391 0.483907C0.397592 0.328707 0.608089 0.241516 0.827576 0.241516H2.56755C2.92694 0.242708 3.27627 0.360261 3.56327 0.576578C3.85026 0.792896 4.05948 1.09634 4.1596 1.4415L4.99856 4.37939H23.1721C23.3016 4.37935 23.4293 4.40969 23.545 4.46799C23.6606 4.52629 23.761 4.61092 23.8379 4.71507C23.9149 4.81921 23.9664 4.93997 23.9882 5.06763C24.01 5.19529 24.0015 5.32628 23.9635 5.45007ZM22.0518 6.03455H5.47131L7.90128 14.5379C7.95072 14.7107 8.05509 14.8628 8.19862 14.971C8.34214 15.0793 8.51701 15.1378 8.69679 15.1379H18.6391C18.8162 15.1379 18.9886 15.0812 19.131 14.976C19.2735 14.8708 19.3784 14.7227 19.4304 14.5534L22.0518 6.03455Z" fill="#FAFAFA"/>
</svg>
