<svg width="32" height="33" viewBox="0 0 32 33" fill="none" xmlns="http://www.w3.org/2000/svg">
<path d="M29.4175 15.09L17.41 3.0825C17.0353 2.71 16.5284 2.50092 16 2.50092C15.4716 2.50092 14.9647 2.71 14.59 3.0825L2.5825 15.09C2.21 15.4647 2.00092 15.9716 2.00092 16.5C2.00092 17.0284 2.21 17.5353 2.5825 17.91L14.59 29.9175C14.9647 30.29 15.4716 30.4991 16 30.4991C16.5284 30.4991 17.0353 30.29 17.41 29.9175L29.4175 17.91C29.79 17.5353 29.9991 17.0284 29.9991 16.5C29.9991 15.9716 29.79 15.4647 29.4175 15.09ZM16 4.5L23 11.5H20C19.8686 11.4999 19.7385 11.5257 19.6171 11.5759C19.4958 11.6261 19.3854 11.6997 19.2925 11.7925L16 15.085L12.7075 11.7925C12.6146 11.6997 12.5042 11.6261 12.3829 11.5759C12.2615 11.5257 12.1314 11.4999 12 11.5H9L16 4.5ZM7 13.5H11.585L14.585 16.5L11.585 19.5H7L4 16.5L7 13.5ZM16 28.5L9 21.5H12C12.1314 21.5001 12.2615 21.4743 12.3829 21.4241C12.5042 21.3739 12.6146 21.3003 12.7075 21.2075L16 17.9138L19.2925 21.2075C19.3854 21.3003 19.4958 21.3739 19.6171 21.4241C19.7385 21.4743 19.8686 21.5001 20 21.5H23L16 28.5ZM25 19.5H20.415L17.415 16.5L20.415 13.5H25L28 16.5L25 19.5Z" fill="#FAFAFA"/>
</svg>
